<?xml version="1.0" encoding="utf-8"?>
<!-- Generator: Adobe Illustrator 25.2.1, SVG Export Plug-In . SVG Version: 6.00 Build 0)  -->
<svg version="1.1" id="Layer_1" xmlns="http://www.w3.org/2000/svg" xmlns:xlink="http://www.w3.org/1999/xlink" x="0px" y="0px"
	 viewBox="0 0 148 43.6" style="enable-background:new 0 0 148 43.6;" xml:space="preserve">
<style type="text/css">
	.st0{fill:#FFFFFF;}
	.st1{fill:#3BBFF0;}
</style>
<g id="Logo_sandbox" transform="translate(-16 -8)">
	<path id="Trazado_1" class="st0" d="M91.4,14h2.2v-0.6l-0.6-0.6h-2.8l-0.6,0.6v4.4l0.6,0.6h2.8l0.6-0.6v-0.6h-2.2v-1.1h2.2v-1.1
		h-2.2V14z"/>
	<rect id="Rectángulo_2" x="90.2" y="8" class="st1" width="3.1" height="3.1"/>
	<path id="Trazado_2" class="st0" d="M87.2,12.9v2.2h-1.7v-2.2h-1.1l-0.6,0.6v4.4l0.6,0.6h1.1v-2.2h1.7v2.2h1.1l0.6-0.6v-4.4
		l-0.6-0.6H87.2z"/>
	<path id="Trazado_3" class="st0" d="M78.5,12.9L78,13.5V14h1.7v3.9l0.6,0.6h0.6l0.6-0.6V14H83v-0.6l-0.6-0.6H78.5z"/>
	<path id="Trazado_5" class="st0" d="M78.1,20.3v22.1h15.5l2.2-2.2V22.6l-2.2-2.2L78.1,20.3L78.1,20.3z M84.7,24.8h4.4V38h-4.4V24.8
		z"/>
	<path id="Trazado_6" class="st0" d="M98,20.3v22.1h15.5l2.2-2.2v-6.6l-2.2-2.2l2.2-2.2v-6.6l-2.2-2.2L98,20.3L98,20.3z M104.7,33.6
		h4.4V38h-4.4V33.6 M104.7,29.2v-4.4h4.4v4.4H104.7z"/>
	<path id="Trazado_7" class="st0" d="M120.2,20.3l-2.2,2.2v17.7l2.2,2.2h13.3l2.2-2.2V22.5l-2.2-2.2H120.2z M124.6,24.8h4.4V38h-4.4
		V24.8z"/>
	<path id="Trazado_11" class="st1" d="M155.6,31.4l4.2-4.2l4.2,4.2l-4.2,4.2L155.6,31.4z"/>
	<path id="Trazado_11_1_" class="st1" d="M40.6,47.4l4.2-4.2l4.2,4.2l-4.2,4.2L40.6,47.4z"/>
	<path id="Trazado_8" class="st0" d="M149,20.3V27l-2.2,2.2l-2.2-2.2v-6.6h-4.4l-2.2,2.2v6.6l2.2,2.2l-2.2,2.2v6.6l2.2,2.2h4.4v-6.6
		l2.2-2.2l2.2,2.2v6.6h4.4l2.2-2.2v-6.6l-2.2-2.2l2.2-2.2v-6.6l-2.2-2.2H149z"/>
	<path id="Trazado_9" class="st0" d="M69.2,20.3V27l-6.7-6.6h-4.4l-2.2,2.2v17.7l2.2,2.2h4.4V29.2l6.7,6.6v6.6h4.4l2.2-2.2V22.6
		l-2.2-2.2L69.2,20.3z"/>
	<path id="Trazado_10" class="st0" d="M51.5,20.4H38.2l-2.2,2.2v17.7l2.2,2.2h4.4v-8.8H47v8.8h4.4l2.2-2.2V22.6L51.5,20.4z M44.8,30
		L42,27.2l2.8-2.8l2.8,2.8L44.8,30z"/>
	<path id="Trazado_6331" class="st0" d="M18.2,20.3L16,22.6v8.8l2.2,2.2h8.9V38h-4.4v-2.2H16v4.4l2.2,2.2h13.3l2.2-2.2v-8.8
		l-2.2-2.2h-8.9v-4.4h4.4V27h6.6v-4.4l-2.2-2.2H18.2z"/>
</g>
</svg>
